<?xml version="1.0" encoding="UTF-8"?>
<svg width="32px" height="32px" viewBox="0 0 32 32" version="1.1" xmlns="http://www.w3.org/2000/svg" xmlns:xlink="http://www.w3.org/1999/xlink">
    <!-- Generator: Sketch 46.1 (44463) - http://www.bohemiancoding.com/sketch -->
    <title>Icons / Alert / -Regular</title>
    <desc>Created with Sketch.</desc>
    <defs></defs>
    <g id="🔣-Symbols" stroke="none" stroke-width="1" fill="none" fill-rule="evenodd">
        <g id="Icons-/-Alert-/--Regular" fill="#f3f3f3">
            <path d="M18.8687,27 C18.8687,28.654 17.5227,30 15.8687,30 C14.2147,30 12.8687,28.654 12.8687,27 C12.8687,26.655 12.9487,26.322 13.0627,26 L18.6747,26 C18.7887,26.321 18.8687,26.654 18.8687,27 L18.8687,27 Z M6.8687,19.303 L6.8687,11 C6.8687,6.038 10.9067,2 15.8687,2 C20.8307,2 24.8687,6.038 24.8687,11 L24.8687,19.303 L27.9997,24 L3.7377,24 L6.8687,19.303 Z M31.7377,26 L26.8687,18.697 L26.8687,11 C26.8687,4.935 21.9337,0 15.8687,0 C9.8037,0 4.8687,4.935 4.8687,11 L4.8687,18.697 L-0.0003,26 L10.9807,26 C10.9127,26.328 10.8687,26.662 10.8687,27 C10.8687,29.757 13.1117,32 15.8687,32 C18.6257,32 20.8687,29.757 20.8687,27 C20.8687,26.662 20.8247,26.328 20.7567,26 L31.7377,26 Z" id="Fill-1"></path>
        </g>
    </g>
</svg>