<?xml version="1.0" encoding="UTF-8"?>
<svg width="32px" height="32px" viewBox="0 0 32 32" version="1.1" xmlns="http://www.w3.org/2000/svg" xmlns:xlink="http://www.w3.org/1999/xlink">
    <!-- Generator: Sketch 43.2 (39069) - http://www.bohemiancoding.com/sketch -->
    <title>Icon/Favorite/Inactive</title>
    <desc>Created with Sketch.</desc>
    <defs></defs>
    <g id="Symbols" stroke="none" stroke-width="1" fill="none" fill-rule="evenodd">
        <g id="Icon/Favorite/Inactive" fill="#f3f3f3">
            <path d="M6.99706941,5.99828703 C5.65145344,5.99828703 4.44879668,6.43416263 3.5040663,7.33690499 C0.773845498,9.94516061 1.82754478,14.8657563 6.06633504,19.3024901 C8.80855242,22.1726709 14.324978,25.511718 15.9995001,26.4944375 C17.675022,25.511718 23.193447,22.1706715 25.9326652,19.3024901 C30.1724552,14.8657563 31.2251548,9.94516061 28.4959337,7.33690499 C25.7837078,4.74564453 20.9410898,5.99728732 16.7202944,10.3820359 L15.9995001,11.1298225 L15.2797056,10.3820359 C12.5294905,7.52485135 9.51435098,5.99828703 6.99706941,5.99828703 L6.99706941,5.99828703 Z M15.9995001,28.7997796 L15.5076405,28.5208592 C15.204727,28.3489082 8.06276526,24.2860678 4.6207476,20.683096 C-0.430810697,15.3956051 -1.45851739,9.31234121 2.12246061,5.89131756 C5.51649196,2.65224198 11.1238916,3.65695524 15.9995001,8.28063566 C20.8751087,3.65695524 26.4845078,2.65024255 29.8775394,5.89131756 C33.4585174,9.31234121 32.4308107,15.3956051 27.3792524,20.683096 C23.9372347,24.2860678 16.795273,28.3489082 16.4923595,28.5208592 L15.9995001,28.7997796 Z" id="Fill-1"></path>
        </g>
    </g>
</svg>