<?xml version="1.0" encoding="UTF-8"?>
<svg width="32px" height="32px" viewBox="0 0 32 32" version="1.1" xmlns="http://www.w3.org/2000/svg" xmlns:xlink="http://www.w3.org/1999/xlink">
    <!-- Generator: Sketch 46.1 (44463) - http://www.bohemiancoding.com/sketch -->
    <title>Icons / Login / -Regular</title>
    <desc>Created with Sketch.</desc>
    <defs></defs>
    <g id="🔣-Symbols" stroke="none" stroke-width="1" fill="none" fill-rule="evenodd">
        <g id="Icons-/-Login-/--Regular" fill="#696766">
            <path d="M16,30 C11.008,30 7.263,28.473 4.906,25.587 C7.268,24.758 11.404,24.237 15.852,24.237 C21.046,24.237 24.989,24.911 27.021,25.67 C24.66,28.5 20.942,30 16,30 M16,2 C25.028,2 30,6.972 30,16 C30,19.181 29.37,21.847 28.176,23.98 C25.676,22.898 21.07,22.237 15.852,22.237 C10.845,22.237 6.321,22.868 3.775,23.89 C2.613,21.771 2,19.136 2,16 C2,6.972 6.972,2 16,2 M16,0 C5.832,0 0,5.832 0,16 C0,26.168 5.832,32 16,32 C26.168,32 32,26.168 32,16 C32,5.832 26.168,0 16,0" id="Fill-1"></path>
            <path d="M16,8.3691 C18.517,8.3691 20.563,10.4161 20.563,12.9321 C20.563,15.4481 18.517,17.4951 16,17.4951 C13.483,17.4951 11.437,15.4481 11.437,12.9321 C11.437,10.4161 13.483,8.3691 16,8.3691 M16,19.4951 C19.619,19.4951 22.563,16.5511 22.563,12.9321 C22.563,9.3131 19.619,6.3691 16,6.3691 C12.381,6.3691 9.437,9.3131 9.437,12.9321 C9.437,16.5511 12.381,19.4951 16,19.4951" id="Fill-3"></path>
            <path d="M15.9727,15.4873 C17.4367,15.4873 18.6647,14.4933 19.0297,13.1443 L12.9147,13.1443 C13.2797,14.4933 14.5077,15.4873 15.9727,15.4873" id="Fill-5"></path>
        </g>
    </g>
</svg>