<svg width="1em" viewBox="0 0 32 32" version="1.1" xmlns="http://www.w3.org/2000/svg"><path fill="#fff" fill-rule="evenodd" d="M23.7725,5.2422 L29.0495,3.8282 L27.6355,9.1062 L23.7725,5.2422 Z M31.8775,1.0002 L28.6705,12.9702 L24.9675,9.2652 L15.2075,19.0262 L13.7935,17.6122 L23.5535,7.8512 L19.9095,4.2072 L31.8775,1.0002 Z M22,27.1435 L22,16.8195 L24,16.8195 L24,27.1435 C24,30.2735 21.454,32.8195 18.324,32.8195 L5.676,32.8195 C2.546,32.8195 5.91645679e-31,30.2735 5.91645679e-31,27.1435 L5.91645679e-31,14.4955 C5.91645679e-31,11.3655 2.546,8.8195 5.676,8.8195 L16,8.8195 L16,10.8195 L5.676,10.8195 C3.649,10.8195 2,12.4685 2,14.4955 L2,27.1435 C2,29.1695 3.649,30.8195 5.676,30.8195 L18.324,30.8195 C20.351,30.8195 22,29.1695 22,27.1435 Z" id="Combined-Shape"></path></svg>