<svg width="1em" viewBox="0 0 17 18" fill="currentColor" xmlns="http://www.w3.org/2000/svg"><path fill-rule="evenodd" clip-rule="evenodd" d="M7.0979 13.1166C3.21646 13.1166 1.07863 10.9793 1.07863 7.0979C1.07863 3.21646 3.21646 1.07863 7.0979 1.07863C10.9793 1.07863 13.1166 3.21646 13.1166 7.0979C13.1166 9.04266 12.5973 10.5479 11.5726 11.5726C10.5479 12.5973 9.04266 13.1166 7.0979 13.1166ZM16.9366 16.3374L12.6178 12.0186C13.6608 10.8062 14.1953 9.157 14.1953 7.0979C14.1953 2.58709 11.6082 0 7.0979 0C2.58709 0 0 2.58709 0 7.0979C0 11.6082 2.58709 14.1953 7.0979 14.1953C9.05776 14.1953 10.6509 13.7169 11.8455 12.7715L16.174 17.1L16.9366 16.3374Z" fill="grey"></path></svg>